<mxfile host="app.diagrams.net" modified="2022-06-29T03:22:45.849Z" agent="5.0 (Windows NT 10.0; Win64; x64) AppleWebKit/537.36 (KHTML, like Gecko) Chrome/103.0.5060.53 Safari/537.36 Edg/103.0.1264.37" etag="dn1M7WQdU241J4bR7Doj" version="20.0.3" type="github">
  <diagram id="UL4M6Joez9CyyY7rrlxm" name="Page-1">
    <mxGraphModel dx="1134" dy="764" grid="1" gridSize="10" guides="1" tooltips="1" connect="1" arrows="1" fold="1" page="1" pageScale="1" pageWidth="827" pageHeight="1169" math="0" shadow="0">
      <root>
        <mxCell id="0" />
        <mxCell id="1" parent="0" />
        <mxCell id="15NFJCJFFs9cSIgxkfOG-5" style="edgeStyle=orthogonalEdgeStyle;rounded=0;orthogonalLoop=1;jettySize=auto;html=1;exitX=0.5;exitY=1;exitDx=0;exitDy=0;" edge="1" parent="1" source="15NFJCJFFs9cSIgxkfOG-1" target="15NFJCJFFs9cSIgxkfOG-2">
          <mxGeometry relative="1" as="geometry" />
        </mxCell>
        <mxCell id="15NFJCJFFs9cSIgxkfOG-1" value="start" style="ellipse;whiteSpace=wrap;html=1;" vertex="1" parent="1">
          <mxGeometry x="180" y="90" width="120" height="80" as="geometry" />
        </mxCell>
        <mxCell id="15NFJCJFFs9cSIgxkfOG-6" style="edgeStyle=orthogonalEdgeStyle;rounded=0;orthogonalLoop=1;jettySize=auto;html=1;exitX=0.5;exitY=1;exitDx=0;exitDy=0;entryX=0.5;entryY=0;entryDx=0;entryDy=0;" edge="1" parent="1" source="15NFJCJFFs9cSIgxkfOG-2" target="15NFJCJFFs9cSIgxkfOG-3">
          <mxGeometry relative="1" as="geometry" />
        </mxCell>
        <mxCell id="15NFJCJFFs9cSIgxkfOG-2" value="verify" style="rounded=0;whiteSpace=wrap;html=1;" vertex="1" parent="1">
          <mxGeometry x="180" y="230" width="120" height="60" as="geometry" />
        </mxCell>
        <mxCell id="15NFJCJFFs9cSIgxkfOG-7" style="edgeStyle=orthogonalEdgeStyle;rounded=0;orthogonalLoop=1;jettySize=auto;html=1;exitX=0.5;exitY=1;exitDx=0;exitDy=0;entryX=0.5;entryY=0;entryDx=0;entryDy=0;" edge="1" parent="1" source="15NFJCJFFs9cSIgxkfOG-3" target="15NFJCJFFs9cSIgxkfOG-4">
          <mxGeometry relative="1" as="geometry" />
        </mxCell>
        <mxCell id="15NFJCJFFs9cSIgxkfOG-3" value="act" style="rounded=0;whiteSpace=wrap;html=1;" vertex="1" parent="1">
          <mxGeometry x="180" y="360" width="120" height="60" as="geometry" />
        </mxCell>
        <mxCell id="15NFJCJFFs9cSIgxkfOG-4" value="end" style="ellipse;whiteSpace=wrap;html=1;" vertex="1" parent="1">
          <mxGeometry x="180" y="470" width="120" height="80" as="geometry" />
        </mxCell>
      </root>
    </mxGraphModel>
  </diagram>
</mxfile>
